<svg xmlns="http://www.w3.org/2000/svg" viewBox="0 0 744.09 1052.4">
  <defs>
    <filter id="drop-shadow" x="-20%" y="-20%" width="140%" height="160%">
      <feDropShadow dx="0" dy="28" stdDeviation="18"
        flood-color="#252625" flood-opacity="0.50"/>
    </filter>
  </defs>
  <g id="layer1">
    <g id="g5030" transform="translate(-982.17 475.04)" filter="url(#drop-shadow)">
      <!-- Основное белое тело облака -->
      <path
          id="path3962"
          style="fill:#ffffff"
          d="m1375.7-95.999c-30.735 0-58.037 14.71-75.25 37.469-14.594-9.2676-31.901-14.625-50.469-14.625-46.876 0-85.768 34.216-93.062 79.031-43.073 8.7073-75.531 46.765-75.531 92.406 0 52.073 42.24 94.281 94.312 94.281 21.236 0 40.832-7.0284 56.594-18.875 9.1676 2.9727 18.936 4.5938 29.094 4.5938 9.8334 0 19.338-1.5196 28.25-4.3125 16.72 15.104 38.881 24.312 63.188 24.312 24.68 0 47.163-9.4792 63.969-25 15.139 10.36 33.458 16.406 53.188 16.406 15.658 0 30.411-3.809 43.406-10.562 6.2741 1.3153 12.772 2 19.438 2 52.072 0 94.281-42.209 94.281-94.281 0-52.073-42.209-94.281-94.281-94.281-0.5112 0-1.022 0.0231-1.5313 0.0312-16.788-20.342-41.934-33.528-70.188-34.281-15.041-32.094-47.62-54.312-85.406-54.312z"
      />
    </g>
  </g>
</svg>