<svg xmlns="http://www.w3.org/2000/svg" viewBox="0 0 744.09 1052.4">
  <path fill= "#ffffff" d="M1429.3,399.4a98.2,98.2,0,0,0-97.1-98.2,42.6,42.6,0,0,0-81.6,17,43.7,43.7,0,0,0,4.5,19.1,97.8,97.8,0,0,0-22.1,62.1,92.3,92.3,0,0,0,.7,11.8,98.2,98.2,0,0,0-82,59.1,41.8,41.8,0,0,0-16.6-3.4,42.6,42.6,0,0,0-42.6,42.6,40.7,40.7,0,0,0,2.3,13.5,76,76,0,0,0-69,57,44,44,0,0,0-8.3-.9A39.5,39.5,0,0,0,987,593.5a113.1,113.1,0,0,0-81.7-34.8h-4.1a42.4,42.4,0,0,0-74.8-5.9,39.3,39.3,0,0,0-45.1,6.4,98.2,98.2,0,0,0-167.4-49.2A75.8,75.8,0,0,0,559,534.7a94,94,0,0,0-16.9-1.5A97.5,97.5,0,0,0,471.8,563a39.5,39.5,0,0,0-68,12.5,116.8,116.8,0,0,0-28.2-12.4c.3-2.2,8.4-50.1-42-49.4a43,43,0,0,0-40.8,30.5,96.3,96.3,0,0,0-10.8-.7,87.8,87.8,0,0,0-40.9,10.1,87.8,87.8,0,0,0-138-68A98.3,98.3,0,0,0,16,411.2a115,115,0,0,0,.7-11.8A98.1,98.1,0,0,0-45,308.2V591.8c.6.4,0,63.2,0,63.2H1314.5a113.3,113.3,0,0,0-21.5-62.1c28.2-17.3,46.8-91.8,46.3-95.7A98.2,98.2,0,0,0,1429.3,399.4Z"/> 
</svg>